<?xml version="1.0" encoding="UTF-8"?>
<!DOCTYPE svg PUBLIC "-//W3C//DTD SVG 1.1//EN" "http://www.w3.org/Graphics/SVG/1.1/DTD/svg11.dtd">
<svg xmlns="http://www.w3.org/2000/svg" version="1.1" width="123px" height="128px" style="shape-rendering:geometricPrecision; text-rendering:geometricPrecision; image-rendering:optimizeQuality; fill-rule:evenodd; clip-rule:evenodd" xmlns:xlink="http://www.w3.org/1999/xlink">
<g><path style="opacity:0.997" fill="#125172" d="M 101.5,22.5 C 109.082,36.2111 111.582,50.8777 109,66.5C 104.417,92.7495 88.9166,107.916 62.5,112C 44.8651,113.363 27.1985,113.863 9.5,113.5C 6.16667,113.5 2.83333,113.5 -0.5,113.5C -0.5,112.5 -0.5,111.5 -0.5,110.5C 2.84632,74.3418 5.84632,38.0085 8.5,1.5C 29.8786,1.05711 51.2119,1.55711 72.5,3C 84.6123,6.0426 94.2789,12.5426 101.5,22.5 Z M 77.5,40.5 C 86.1903,71.4677 74.5237,87.801 42.5,89.5C 44.2189,71.8779 45.8856,54.2112 47.5,36.5C 57.7628,36.158 67.7628,37.4913 77.5,40.5 Z"/></g>
<g><path style="opacity:0.932" fill="#fbd603" d="M 101.5,22.5 C 105.768,24.9325 109.268,28.2658 112,32.5C 123.267,54.7978 123.267,77.1312 112,99.5C 102.09,113.381 88.5897,121.548 71.5,124C 50.5026,124.5 29.5026,124.667 8.5,124.5C 9.24362,120.881 9.57695,117.215 9.5,113.5C 27.1985,113.863 44.8651,113.363 62.5,112C 88.9166,107.916 104.417,92.7495 109,66.5C 111.582,50.8777 109.082,36.2111 101.5,22.5 Z"/></g>
<g><path style="opacity:0.937" fill="#f9d408" d="M 77.5,40.5 C 67.7628,37.4913 57.7628,36.158 47.5,36.5C 45.8856,54.2112 44.2189,71.8779 42.5,89.5C 38.8333,89.5 35.1667,89.5 31.5,89.5C 32.8362,68.1325 34.5029,46.7991 36.5,25.5C 45.5517,25.1929 54.5517,25.6929 63.5,27C 70.6979,29.061 75.3646,33.561 77.5,40.5 Z"/></g>
</svg>
